<svg xmlns="http://www.w3.org/2000/svg" width="47" height="39" viewBox="0 0 47 39">
  <g fill="none" fill-rule="evenodd" transform="translate(-1 -3)">
    <rect width="582" height="402"/>
    <path fill="#FFF" d="M24.929281,21.1200008 C21.1795208,21.1200008 1.86048007,5.55072022 1.86048007,5.55072022 L1.86048007,3.84000015 C1.86048007,1.72032007 3.58080014,0 5.70432023,0 L44.1542418,0 C46.2796818,0 48.0000019,1.72032007 48.0000019,3.84000015 L47.9692819,5.76000023 C47.9692819,5.76000023 28.8595211,21.1200008 24.929281,21.1200008 Z M24.929281,26.400001 C29.0400012,26.400001 47.9692819,11.5200005 47.9692819,11.5200005 L48.0000019,34.5600014 C48.0000019,36.6796815 46.2796818,38.4000015 44.1542418,38.4000015 L5.70432023,38.4000015 C3.58272014,38.4000015 1.86048007,36.6796815 1.86048007,34.5600014 L1.89120008,11.5200005 C1.88928008,11.5200005 21.1795208,26.400001 24.929281,26.400001 Z" transform="translate(0 3)"/>
  </g>
</svg>
