<?xml version="1.0" encoding="UTF-8"?>
<svg width="315px" height="64px" viewBox="0 0 315 64" version="1.1" xmlns="http://www.w3.org/2000/svg" xmlns:xlink="http://www.w3.org/1999/xlink">
    <!-- Generator: Sketch 46.2 (44496) - http://www.bohemiancoding.com/sketch -->
    <title>Logo</title>
    <desc>Created with Sketch.</desc>
    <defs></defs>
    <g id="Page-1" stroke="none" stroke-width="1" fill="none" fill-rule="evenodd">
        <g id="Selenium-Chicago-Holding-Page" transform="translate(-145.000000, -29.000000)" fill="#4C8DBF">
            <g id="Logo" transform="translate(145.000000, 23.000000)">
                <path d="M83.814,40.351 C82.6959944,40.351 81.539006,40.2567509 80.343,40.06825 C79.146994,39.8797491 78.0095054,39.5970019 76.9305,39.22 L76.9305,37.0945 C79.2315115,37.8745039 81.5389884,38.2645 83.853,38.2645 C86.3490125,38.2645 88.2177438,37.7770049 89.45925,36.802 C90.7007562,35.8269951 91.3215,34.3905095 91.3215,32.4925 C91.3215,31.4134946 91.116752,30.5165036 90.70725,29.8015 C90.297748,29.0864964 89.6542544,28.4852524 88.77675,27.99775 C87.8992456,27.5102476 86.7065075,27.0715019 85.1985,26.6815 L83.7945,26.3305 C81.3374877,25.6934968 79.5142559,24.7510062 78.32475,23.503 C77.1352441,22.2549938 76.5405,20.6105102 76.5405,18.5695 C76.5405,16.9574919 76.9109963,15.5697558 77.652,14.40625 C78.3930037,13.2427442 79.4979927,12.3490031 80.967,11.725 C82.4360073,11.1009969 84.2429893,10.789 86.388,10.789 C87.4670054,10.789 88.5427446,10.8637493 89.61525,11.01325 C90.6877554,11.1627507 91.6594956,11.3804986 92.5305,11.6665 L92.5305,13.7725 C90.6064904,13.174497 88.5590109,12.8755 86.388,12.8755 C83.9049876,12.8755 82.0460062,13.3499953 80.811,14.299 C79.5759938,15.2480047 78.9585,16.625991 78.9585,18.433 C78.9585,19.4860053 79.1437481,20.3667465 79.51425,21.07525 C79.8847519,21.7837535 80.4827459,22.3817476 81.30825,22.86925 C82.1337541,23.3567524 83.2549929,23.7889981 84.672,24.166 L86.076,24.517 C88.7150132,25.1930034 90.6519938,26.1549938 91.887,27.403 C93.1220062,28.6510062 93.7395,30.3019897 93.7395,32.356 C93.7395,34.0590085 93.3527539,35.508494 92.57925,36.7045 C91.8057461,37.900506 90.6780074,38.8072469 89.196,39.42475 C87.7139926,40.0422531 85.9200105,40.351 83.814,40.351 Z M114.5745,30.289 L100.866,30.289 C100.918,32.2390098 101.226747,33.8054941 101.79225,34.9885 C102.357753,36.1715059 103.176745,37.0294973 104.24925,37.5625 C105.321755,38.0955027 106.676992,38.362 108.315,38.362 C109.849008,38.362 111.59749,38.063003 113.5605,37.465 L113.5605,39.4735 C111.64949,40.071503 109.816509,40.3705 108.0615,40.3705 C104.876484,40.3705 102.481258,39.4995087 100.87575,37.7575 C99.270242,36.0154913 98.4675,33.240019 98.4675,29.431 C98.4675,25.7779817 99.1889928,23.054509 100.632,21.2605 C102.075007,19.466491 104.096487,18.5695 106.6965,18.5695 C109.244513,18.5695 111.194493,19.4599911 112.5465,21.241 C113.898507,23.0220089 114.5745,25.7649815 114.5745,29.47 L114.5745,30.289 Z M106.677,20.4025 C104.856991,20.4025 103.446505,21.0362437 102.4455,22.30375 C101.444495,23.5712563 100.918,25.6414856 100.866,28.5145 L112.2735,28.5145 C112.2215,25.6284856 111.724255,23.5550063 110.78175,22.294 C109.839245,21.0329937 108.471009,20.4025 106.677,20.4025 Z M120.063,40 L120.063,8.488 L122.403,8.488 L122.403,40 L120.063,40 Z M144.33,30.289 L130.6215,30.289 C130.6735,32.2390098 130.982247,33.8054941 131.54775,34.9885 C132.113253,36.1715059 132.932245,37.0294973 134.00475,37.5625 C135.077255,38.0955027 136.432492,38.362 138.0705,38.362 C139.604508,38.362 141.35299,38.063003 143.316,37.465 L143.316,39.4735 C141.40499,40.071503 139.572009,40.3705 137.817,40.3705 C134.631984,40.3705 132.236758,39.4995087 130.63125,37.7575 C129.025742,36.0154913 128.223,33.240019 128.223,29.431 C128.223,25.7779817 128.944493,23.054509 130.3875,21.2605 C131.830507,19.466491 133.851987,18.5695 136.452,18.5695 C139.000013,18.5695 140.949993,19.4599911 142.302,21.241 C143.654007,23.0220089 144.33,25.7649815 144.33,29.47 L144.33,30.289 Z M136.4325,20.4025 C134.612491,20.4025 133.202005,21.0362437 132.201,22.30375 C131.199995,23.5712563 130.6735,25.6414856 130.6215,28.5145 L142.029,28.5145 C141.977,25.6284856 141.479755,23.5550063 140.53725,22.294 C139.594745,21.0329937 138.226509,20.4025 136.4325,20.4025 Z M149.8185,18.8815 L151.8075,18.8815 L152.0025,21.3385 L152.178,21.3385 C153.062004,20.4414955 154.082494,19.7557524 155.2395,19.28125 C156.396506,18.8067476 157.624994,18.5695 158.925,18.5695 C161.01801,18.5695 162.655994,19.1447442 163.839,20.29525 C165.022006,21.4457558 165.6135,23.2949873 165.6135,25.843 L165.6135,40 L163.2735,40 L163.2735,25.921 C163.2735,24.0619907 162.860754,22.7262541 162.03525,21.91375 C161.209746,21.1012459 160.023508,20.695 158.4765,20.695 C157.345494,20.695 156.208006,20.9452475 155.064,21.44575 C153.919994,21.9462525 152.951504,22.7294947 152.1585,23.7955 L152.1585,40 L149.8185,40 L149.8185,18.8815 Z M172.311,40 L172.311,18.8815 L174.6705,18.8815 L174.6705,40 L172.311,40 Z M173.481,13.909 C172.934997,13.909 172.506002,13.7660014 172.194,13.48 C171.881998,13.1939986 171.726,12.7975025 171.726,12.2905 C171.726,11.7834975 171.881998,11.3772515 172.194,11.07175 C172.506002,10.7662485 172.934997,10.6135 173.481,10.6135 C174.027003,10.6135 174.455998,10.7662485 174.768,11.07175 C175.080002,11.3772515 175.236,11.7834975 175.236,12.2905 C175.236,12.7975025 175.083252,13.1939986 174.77775,13.48 C174.472248,13.7660014 174.040003,13.909 173.481,13.909 Z M187.998,40.351 C185.94399,40.351 184.325506,39.7790057 183.1425,38.635 C181.959494,37.4909943 181.368,35.6515127 181.368,33.1165 L181.368,18.8815 L183.708,18.8815 L183.708,33.0385 C183.708,34.8845092 184.120746,36.210496 184.94625,37.0165 C185.771754,37.822504 186.925493,38.2255 188.4075,38.2255 C189.525506,38.2255 190.649994,37.9687526 191.781,37.45525 C192.912006,36.9417474 193.860996,36.1650052 194.628,35.125 L194.628,18.8815 L196.968,18.8815 L196.968,40 L194.979,40 L194.784,37.6405 L194.6085,37.6405 C193.724496,38.5375045 192.713756,39.2134977 191.57625,39.6685 C190.438744,40.1235023 189.246006,40.351 187.998,40.351 Z M224.277,18.5695 C226.20101,18.5695 227.715494,19.1414943 228.8205,20.2855 C229.925506,21.4295057 230.478,23.2754873 230.478,25.8235 L230.478,40 L228.138,40 L228.138,25.9015 C228.138,22.4304826 226.695014,20.695 223.809,20.695 C222.820995,20.695 221.826505,20.9354976 220.8255,21.4165 C219.824495,21.8975024 218.973004,22.6709947 218.271,23.737 C218.362,24.4650036 218.4075,25.1474968 218.4075,25.7845 L218.4075,40 L216.1065,40 L216.1065,25.9015 C216.1065,24.0424907 215.739254,22.710004 215.00475,21.904 C214.270246,21.097996 213.233507,20.695 211.8945,20.695 C210.867495,20.695 209.847005,20.9549974 208.833,21.475 C207.818995,21.9950026 206.961004,22.8009945 206.259,23.893 L206.259,40 L203.919,40 L203.919,18.8815 L205.908,18.8815 L206.103,21.3385 L206.2785,21.3385 C207.084504,20.4284954 208.017245,19.7395023 209.07675,19.2715 C210.136255,18.8034977 211.257494,18.5695 212.4405,18.5695 C215.014513,18.5695 216.762995,19.6029897 217.686,21.67 C218.622005,20.5779945 219.661994,19.7882524 220.806,19.30075 C221.950006,18.8132476 223.106994,18.5695 224.277,18.5695 Z M251.655,40.351 C247.65098,40.351 244.557011,39.2005115 242.373,36.8995 C240.188989,34.5984885 239.097,30.8350261 239.097,25.609 C239.097,20.4999745 240.201989,16.7527619 242.412,14.36725 C244.622011,11.9817381 247.806979,10.789 251.967,10.789 C254.07301,10.789 256.15299,11.0749971 258.207,11.647 L258.207,13.792 C256.20499,13.193997 254.131511,12.895 251.9865,12.895 C249.698488,12.895 247.790757,13.3109958 246.26325,14.143 C244.735742,14.9750042 243.572254,16.3204907 242.77275,18.1795 C241.973246,20.0385093 241.5735,22.4889848 241.5735,25.531 C241.5735,28.6770157 241.979746,31.1859906 242.79225,33.058 C243.604754,34.9300094 244.758492,36.262496 246.2535,37.0555 C247.748507,37.848504 249.594489,38.245 251.7915,38.245 C252.883505,38.245 253.933245,38.1572509 254.94075,37.98175 C255.948255,37.8062491 257.036994,37.5235019 258.207,37.1335 L258.207,39.259 C256.17899,39.9870036 253.995012,40.351 251.655,40.351 Z M268.3395,40.3705 C265.609486,40.3705 263.484007,39.4832589 261.963,37.70875 C260.441992,35.9342411 259.6815,33.1815187 259.6815,29.4505 C259.6815,25.7454815 260.441992,23.0057589 261.963,21.23125 C263.484007,19.4567411 265.609486,18.5695 268.3395,18.5695 C271.082514,18.5695 273.211242,19.4502412 274.72575,21.21175 C276.240257,22.9732588 276.9975,25.7194813 276.9975,29.4505 C276.9975,33.1555185 276.233757,35.9017411 274.70625,37.68925 C273.178742,39.4767589 271.056513,40.3705 268.3395,40.3705 Z M268.3395,38.362 C270.36751,38.362 271.914495,37.6795068 272.9805,36.3145 C274.046505,34.9494932 274.5795,32.6810159 274.5795,29.509 C274.5795,26.2849839 274.046505,23.9872569 272.9805,22.61575 C271.914495,21.2442431 270.36751,20.5585 268.3395,20.5585 C266.31149,20.5585 264.764505,21.2377432 263.6985,22.59625 C262.632495,23.9547568 262.0995,26.2199841 262.0995,29.392 C262.0995,32.6160161 262.632495,34.9169931 263.6985,36.295 C264.764505,37.6730069 266.31149,38.362 268.3395,38.362 Z M281.748,18.8815 L283.737,18.8815 L283.932,21.3385 L284.1075,21.3385 C284.991504,20.4414955 286.011994,19.7557524 287.169,19.28125 C288.326006,18.8067476 289.554493,18.5695 290.8545,18.5695 C292.94751,18.5695 294.585494,19.1447442 295.7685,20.29525 C296.951506,21.4457558 297.543,23.2949873 297.543,25.843 L297.543,40 L295.203,40 L295.203,25.921 C295.203,24.0619907 294.790254,22.7262541 293.96475,21.91375 C293.139246,21.1012459 291.953008,20.695 290.406,20.695 C289.274994,20.695 288.137506,20.9452475 286.9935,21.44575 C285.849494,21.9462525 284.881004,22.7294947 284.088,23.7955 L284.088,40 L281.748,40 L281.748,18.8815 Z M311.8875,10.1455 C310.171491,10.1455 308.907254,10.5354961 308.09475,11.3155 C307.282246,12.0955039 306.876,13.382491 306.876,15.1765 L306.876,18.8815 L313.779,18.8815 L313.779,20.89 L306.876,20.89 L306.876,40 L304.536,40 L304.536,20.89 L300.4215,20.89 L300.4215,18.8815 L304.536,18.8815 L304.536,15.2935 C304.536,12.9144881 305.140494,11.120506 306.3495,9.9115 C307.558506,8.70249396 309.358988,8.098 311.751,8.098 C312.726005,8.098 313.661995,8.17599922 314.559,8.332 L314.559,10.399 C313.700996,10.2299992 312.810504,10.1455 311.8875,10.1455 Z" id="Selenium-Conf"></path>
                <path d="M82.828125,66.41875 C80.9031154,66.41875 79.4156303,65.8656305 78.365625,64.759375 C77.3156197,63.6531195 76.790625,61.8437626 76.790625,59.33125 C76.790625,56.8749877 77.3218697,55.0734432 78.384375,53.9265625 C79.4468803,52.7796818 80.978115,52.20625 82.978125,52.20625 C83.9906301,52.20625 84.9906201,52.3437486 85.978125,52.61875 L85.978125,53.65 C85.0156202,53.3624986 84.0187552,53.21875 82.9875,53.21875 C81.8874945,53.21875 80.9703162,53.418748 80.2359375,53.81875 C79.5015588,54.218752 78.9421894,54.8656205 78.5578125,55.759375 C78.1734356,56.6531295 77.98125,57.8312427 77.98125,59.29375 C77.98125,60.8062576 78.1765605,62.0124955 78.5671875,62.9125 C78.9578145,63.8125045 79.5124964,64.4531231 80.23125,64.834375 C80.9500036,65.2156269 81.8374947,65.40625 82.89375,65.40625 C83.4187526,65.40625 83.9234351,65.3640629 84.4078125,65.2796875 C84.8921899,65.1953121 85.4156222,65.0593759 85.978125,64.871875 L85.978125,65.89375 C85.0031201,66.2437518 83.9531306,66.41875 82.828125,66.41875 Z M91.753125,66.25 L91.753125,52.375 L92.8875,52.375 L92.8875,58.6 L100.63125,58.6 L100.63125,52.375 L101.765625,52.375 L101.765625,66.25 L100.63125,66.25 L100.63125,59.65 L92.8875,59.65 L92.8875,66.25 L91.753125,66.25 Z M108.853125,66.25 L108.853125,52.375 L109.9875,52.375 L109.9875,66.25 L108.853125,66.25 Z M122.49375,66.41875 C120.56874,66.41875 119.081255,65.8656305 118.03125,64.759375 C116.981245,63.6531195 116.45625,61.8437626 116.45625,59.33125 C116.45625,56.8749877 116.987495,55.0734432 118.05,53.9265625 C119.112505,52.7796818 120.64374,52.20625 122.64375,52.20625 C123.656255,52.20625 124.656245,52.3437486 125.64375,52.61875 L125.64375,53.65 C124.681245,53.3624986 123.68438,53.21875 122.653125,53.21875 C121.55312,53.21875 120.635941,53.418748 119.901563,53.81875 C119.167184,54.218752 118.607814,54.8656205 118.223438,55.759375 C117.839061,56.6531295 117.646875,57.8312427 117.646875,59.29375 C117.646875,60.8062576 117.842186,62.0124955 118.232813,62.9125 C118.623439,63.8125045 119.178121,64.4531231 119.896875,64.834375 C120.615629,65.2156269 121.50312,65.40625 122.559375,65.40625 C123.084378,65.40625 123.58906,65.3640629 124.073438,65.2796875 C124.557815,65.1953121 125.081247,65.0593759 125.64375,64.871875 L125.64375,65.89375 C124.668745,66.2437518 123.618756,66.41875 122.49375,66.41875 Z M140.653125,66.25 L138.946875,61.5625 L132.91875,61.5625 L131.2125,66.25 L130.05,66.25 L135.159375,52.375 L136.725,52.375 L141.834375,66.25 L140.653125,66.25 Z M133.275,60.56875 L138.58125,60.56875 L135.928125,53.284375 L133.275,60.56875 Z M156.609375,59.5 L156.609375,66.090625 C156.040622,66.1843755 155.521877,66.2515623 155.053125,66.2921875 C154.584373,66.3328127 154.096878,66.353125 153.590625,66.353125 C151.284363,66.353125 149.557818,65.7890681 148.410937,64.6609375 C147.264057,63.5328069 146.6875,61.7562621 146.68125,59.33125 C146.675,56.8812377 147.246869,55.0812557 148.396875,53.93125 C149.546881,52.7812443 151.14999,52.20625 153.20625,52.20625 C154.231255,52.20625 155.26562,52.3468736 156.309375,52.628125 L156.309375,53.65 C155.753122,53.4937492 155.22969,53.3828128 154.739062,53.3171875 C154.248435,53.2515622 153.753128,53.21875 153.253125,53.21875 C151.521866,53.21875 150.192192,53.6937452 149.264062,54.64375 C148.335933,55.5937548 147.871875,57.1468642 147.871875,59.303125 C147.871875,60.7281321 148.081248,61.8843706 148.5,62.771875 C148.918752,63.6593794 149.543746,64.3109354 150.375,64.7265625 C151.206254,65.1421896 152.262494,65.35 153.54375,65.35 C154.268754,65.35 154.924997,65.3031255 155.5125,65.209375 L155.5125,59.5 L156.609375,59.5 Z M168.43125,66.41875 C166.681241,66.41875 165.317192,65.8421933 164.339063,64.6890625 C163.360933,63.5359317 162.871875,61.7437622 162.871875,59.3125 C162.871875,56.8812378 163.364058,55.0890683 164.348437,53.9359375 C165.332817,52.7828067 166.693741,52.20625 168.43125,52.20625 C170.181259,52.20625 171.545308,52.7828067 172.523438,53.9359375 C173.501567,55.0890683 173.990625,56.8812378 173.990625,59.3125 C173.990625,61.7437622 173.498442,63.5359317 172.514063,64.6890625 C171.529683,65.8421933 170.168759,66.41875 168.43125,66.41875 Z M168.43125,65.415625 C169.825007,65.415625 170.903121,64.9406297 171.665625,63.990625 C172.428129,63.0406203 172.809375,61.4968857 172.809375,59.359375 C172.809375,57.1781141 172.428129,55.6078173 171.665625,54.6484375 C170.903121,53.6890577 169.825007,53.209375 168.43125,53.209375 C167.037493,53.209375 165.959379,53.6843703 165.196875,54.634375 C164.434371,55.5843798 164.053125,57.1281143 164.053125,59.265625 C164.053125,61.4468859 164.434371,63.0171827 165.196875,63.9765625 C165.959379,64.9359423 167.037493,65.415625 168.43125,65.415625 Z" id="Chicago"></path>
                <path d="M40.1018258,46.3892617 C37.0301966,46.3892617 35.5797051,48.614094 35.323736,50.5822148 C35.323736,50.6677852 35.409059,50.7533557 35.494382,50.7533557 L44.7945927,50.7533557 C44.8799157,50.7533557 44.9652388,50.6677852 44.9652388,50.5822148 C44.7092697,48.6996644 43.4294242,46.3892617 40.1018258,46.3892617 Z M59.9820927,15.2416107 L40.2724719,37.4043624 C40.0165028,37.6610738 39.5898876,37.6610738 39.4192416,37.4043624 L29.3511236,26.9647651 C29.1804775,26.7936242 29.0951545,26.4513423 29.2658006,26.1946309 L32.5933989,21.9161074 C32.849368,21.5738255 33.2759831,21.5738255 33.5319522,21.8305369 L39.0779494,28.0771812 C39.3339185,28.3338926 39.7605337,28.3338926 40.0165028,28.0771812 L55.8865871,6.68456376 C56.0572331,6.42785235 55.8865871,6 55.5452949,6 L0.426615169,6 C0.170646067,6 0,6.17114094 0,6.42785235 L0,69.3221477 C0,69.5788591 0.170646067,69.75 0.426615169,69.75 L60.3233848,69.75 C60.5793539,69.75 60.75,69.5788591 60.75,69.3221477 L60.75,15.4127517 C60.75,15.1560403 60.2380618,14.8993289 59.9820927,15.2416107 Z M16.8939607,62.8187919 C12.1158708,62.8187919 8.6176264,61.2785235 6.14325843,58.9681208 C5.97261236,58.7969799 5.88728933,58.454698 6.05793539,58.1979866 L8.3616573,54.9463087 C8.53230337,54.6895973 8.95891854,54.6040268 9.21488764,54.8607383 C11.0919944,56.5721477 13.7370084,57.9412752 17.0646067,57.9412752 C20.136236,57.9412752 21.6720506,56.4865772 21.6720506,55.0318792 C21.6720506,50.4110738 6.5698736,53.5771812 6.5698736,43.6510067 C6.5698736,39.2869128 10.3240871,35.6073826 16.5526685,35.6073826 C20.4775281,35.6073826 23.8051264,36.7197987 26.3648174,38.9446309 C26.6207865,39.1157718 26.6207865,39.4580537 26.4501404,39.7147651 L24.0610955,42.8808725 C23.8904494,43.1375839 23.4638343,43.2231544 23.2078652,42.966443 C21.1601124,41.2550336 18.5150983,40.4848993 16.0407303,40.4848993 C13.6516854,40.4848993 12.2865169,41.511745 12.2865169,43.1375839 C12.2865169,47.3305369 27.3886938,44.5067114 27.3886938,54.3473154 C27.3886938,59.2248322 23.9757725,62.8187919 16.8939607,62.8187919 Z M49.9139747,53.7483221 C49.9139747,54.0050336 49.6580056,54.261745 49.4020365,54.261745 L35.5797051,54.261745 C35.494382,54.261745 35.409059,54.3473154 35.409059,54.4328859 C35.8356742,56.8288591 37.7981039,58.7969799 41.0403792,58.7969799 C42.4908708,58.7969799 44.5386236,58.1979866 45.8184691,57.1711409 C46.0744382,57 46.4157303,57 46.5863764,57.2567114 L48.2928371,59.738255 C48.4634831,59.9949664 48.3781601,60.2516779 48.207514,60.4228188 C46.2450843,61.9630872 43.3441011,62.8187919 40.528441,62.8187919 C34.5558287,62.8187919 30.1190309,58.7969799 30.1190309,52.5503356 C30.1190309,46.9026846 34.2998596,42.2818792 40.1871489,42.2818792 C45.9891152,42.2818792 49.9992978,46.6459732 49.9992978,53.0637584 L49.9992978,53.7483221 L49.9139747,53.7483221 Z" id="Shape" fill-rule="nonzero"></path>
            </g>
        </g>
    </g>
</svg>